<mxfile host="app.diagrams.net" agent="Mozilla/5.0 (Windows NT 10.0; Win64; x64) AppleWebKit/537.36 (KHTML, like Gecko) Chrome/128.0.0.0 Safari/537.36" version="24.7.12">
  <diagram id="C5RBs43oDa-KdzZeNtuy" name="Page-1">
    <mxGraphModel dx="1120" dy="426" grid="1" gridSize="10" guides="1" tooltips="1" connect="1" arrows="1" fold="1" page="1" pageScale="1" pageWidth="827" pageHeight="1169" math="0" shadow="0">
      <root>
        <mxCell id="WIyWlLk6GJQsqaUBKTNV-0" />
        <mxCell id="WIyWlLk6GJQsqaUBKTNV-1" parent="WIyWlLk6GJQsqaUBKTNV-0" />
        <mxCell id="Ss0ZoV3JKDON7PeTJ0M3-0" value="Controller_Login" style="swimlane;fontStyle=1;align=center;verticalAlign=top;childLayout=stackLayout;horizontal=1;startSize=26;horizontalStack=0;resizeParent=1;resizeParentMax=0;resizeLast=0;collapsible=1;marginBottom=0;whiteSpace=wrap;html=1;" vertex="1" parent="WIyWlLk6GJQsqaUBKTNV-1">
          <mxGeometry x="140" y="220" width="290" height="114" as="geometry" />
        </mxCell>
        <mxCell id="Ss0ZoV3JKDON7PeTJ0M3-1" value="- user: String&lt;div&gt;&lt;br&gt;&lt;/div&gt;&lt;div&gt;- password: String&lt;/div&gt;" style="text;strokeColor=none;fillColor=none;align=left;verticalAlign=top;spacingLeft=4;spacingRight=4;overflow=hidden;rotatable=0;points=[[0,0.5],[1,0.5]];portConstraint=eastwest;whiteSpace=wrap;html=1;" vertex="1" parent="Ss0ZoV3JKDON7PeTJ0M3-0">
          <mxGeometry y="26" width="290" height="54" as="geometry" />
        </mxCell>
        <mxCell id="Ss0ZoV3JKDON7PeTJ0M3-2" value="" style="line;strokeWidth=1;fillColor=none;align=left;verticalAlign=middle;spacingTop=-1;spacingLeft=3;spacingRight=3;rotatable=0;labelPosition=right;points=[];portConstraint=eastwest;strokeColor=inherit;" vertex="1" parent="Ss0ZoV3JKDON7PeTJ0M3-0">
          <mxGeometry y="80" width="290" height="8" as="geometry" />
        </mxCell>
        <mxCell id="Ss0ZoV3JKDON7PeTJ0M3-3" value="+ login(user: String, passowrd: String): String" style="text;strokeColor=none;fillColor=none;align=left;verticalAlign=top;spacingLeft=4;spacingRight=4;overflow=hidden;rotatable=0;points=[[0,0.5],[1,0.5]];portConstraint=eastwest;whiteSpace=wrap;html=1;" vertex="1" parent="Ss0ZoV3JKDON7PeTJ0M3-0">
          <mxGeometry y="88" width="290" height="26" as="geometry" />
        </mxCell>
        <mxCell id="Ss0ZoV3JKDON7PeTJ0M3-6" value="Auth" style="swimlane;fontStyle=1;align=center;verticalAlign=top;childLayout=stackLayout;horizontal=1;startSize=26;horizontalStack=0;resizeParent=1;resizeParentMax=0;resizeLast=0;collapsible=1;marginBottom=0;whiteSpace=wrap;html=1;" vertex="1" parent="WIyWlLk6GJQsqaUBKTNV-1">
          <mxGeometry x="610" y="220" width="480" height="112" as="geometry" />
        </mxCell>
        <mxCell id="Ss0ZoV3JKDON7PeTJ0M3-8" value="" style="line;strokeWidth=1;fillColor=none;align=left;verticalAlign=middle;spacingTop=-1;spacingLeft=3;spacingRight=3;rotatable=0;labelPosition=right;points=[];portConstraint=eastwest;strokeColor=inherit;" vertex="1" parent="Ss0ZoV3JKDON7PeTJ0M3-6">
          <mxGeometry y="26" width="480" height="8" as="geometry" />
        </mxCell>
        <mxCell id="Ss0ZoV3JKDON7PeTJ0M3-9" value="+ authenticate_user(user: String, passowrd: String): String" style="text;strokeColor=none;fillColor=none;align=left;verticalAlign=top;spacingLeft=4;spacingRight=4;overflow=hidden;rotatable=0;points=[[0,0.5],[1,0.5]];portConstraint=eastwest;whiteSpace=wrap;html=1;" vertex="1" parent="Ss0ZoV3JKDON7PeTJ0M3-6">
          <mxGeometry y="34" width="480" height="26" as="geometry" />
        </mxCell>
        <mxCell id="Ss0ZoV3JKDON7PeTJ0M3-10" value="+ get_user(user: String, passowrd: String): String" style="text;strokeColor=none;fillColor=none;align=left;verticalAlign=top;spacingLeft=4;spacingRight=4;overflow=hidden;rotatable=0;points=[[0,0.5],[1,0.5]];portConstraint=eastwest;whiteSpace=wrap;html=1;" vertex="1" parent="Ss0ZoV3JKDON7PeTJ0M3-6">
          <mxGeometry y="60" width="480" height="26" as="geometry" />
        </mxCell>
        <mxCell id="Ss0ZoV3JKDON7PeTJ0M3-11" value="+ verificar_senha_encriptada(senha_armazenada: String, password: String): String" style="text;strokeColor=none;fillColor=none;align=left;verticalAlign=top;spacingLeft=4;spacingRight=4;overflow=hidden;rotatable=0;points=[[0,0.5],[1,0.5]];portConstraint=eastwest;whiteSpace=wrap;html=1;" vertex="1" parent="Ss0ZoV3JKDON7PeTJ0M3-6">
          <mxGeometry y="86" width="480" height="26" as="geometry" />
        </mxCell>
        <mxCell id="Ss0ZoV3JKDON7PeTJ0M3-12" value="" style="endArrow=classic;html=1;rounded=0;exitX=1.01;exitY=0.778;exitDx=0;exitDy=0;exitPerimeter=0;entryX=-0.006;entryY=0.269;entryDx=0;entryDy=0;entryPerimeter=0;" edge="1" parent="WIyWlLk6GJQsqaUBKTNV-1" source="Ss0ZoV3JKDON7PeTJ0M3-1" target="Ss0ZoV3JKDON7PeTJ0M3-10">
          <mxGeometry width="50" height="50" relative="1" as="geometry">
            <mxPoint x="580" y="430" as="sourcePoint" />
            <mxPoint x="630" y="380" as="targetPoint" />
          </mxGeometry>
        </mxCell>
        <mxCell id="Ss0ZoV3JKDON7PeTJ0M3-18" value="" style="endArrow=classic;html=1;rounded=0;exitX=0.538;exitY=1.154;exitDx=0;exitDy=0;exitPerimeter=0;entryX=0.38;entryY=0;entryDx=0;entryDy=0;entryPerimeter=0;" edge="1" parent="WIyWlLk6GJQsqaUBKTNV-1" source="Ss0ZoV3JKDON7PeTJ0M3-3" target="Ss0ZoV3JKDON7PeTJ0M3-19">
          <mxGeometry width="50" height="50" relative="1" as="geometry">
            <mxPoint x="443" y="298" as="sourcePoint" />
            <mxPoint x="617" y="297" as="targetPoint" />
          </mxGeometry>
        </mxCell>
        <mxCell id="Ss0ZoV3JKDON7PeTJ0M3-19" value="Token" style="swimlane;fontStyle=1;align=center;verticalAlign=top;childLayout=stackLayout;horizontal=1;startSize=26;horizontalStack=0;resizeParent=1;resizeParentMax=0;resizeLast=0;collapsible=1;marginBottom=0;whiteSpace=wrap;html=1;" vertex="1" parent="WIyWlLk6GJQsqaUBKTNV-1">
          <mxGeometry x="140" y="470" width="410" height="166" as="geometry" />
        </mxCell>
        <mxCell id="Ss0ZoV3JKDON7PeTJ0M3-20" value="- SECRET_KEY: String&lt;div&gt;&lt;br&gt;&lt;/div&gt;&lt;div&gt;- ALGORITHM: String&lt;/div&gt;" style="text;strokeColor=none;fillColor=none;align=left;verticalAlign=top;spacingLeft=4;spacingRight=4;overflow=hidden;rotatable=0;points=[[0,0.5],[1,0.5]];portConstraint=eastwest;whiteSpace=wrap;html=1;" vertex="1" parent="Ss0ZoV3JKDON7PeTJ0M3-19">
          <mxGeometry y="26" width="410" height="54" as="geometry" />
        </mxCell>
        <mxCell id="Ss0ZoV3JKDON7PeTJ0M3-21" value="" style="line;strokeWidth=1;fillColor=none;align=left;verticalAlign=middle;spacingTop=-1;spacingLeft=3;spacingRight=3;rotatable=0;labelPosition=right;points=[];portConstraint=eastwest;strokeColor=inherit;" vertex="1" parent="Ss0ZoV3JKDON7PeTJ0M3-19">
          <mxGeometry y="80" width="410" height="8" as="geometry" />
        </mxCell>
        <mxCell id="Ss0ZoV3JKDON7PeTJ0M3-22" value="- create_access_token(data: Json, expires_delta: Datetime): String" style="text;strokeColor=none;fillColor=none;align=left;verticalAlign=top;spacingLeft=4;spacingRight=4;overflow=hidden;rotatable=0;points=[[0,0.5],[1,0.5]];portConstraint=eastwest;whiteSpace=wrap;html=1;" vertex="1" parent="Ss0ZoV3JKDON7PeTJ0M3-19">
          <mxGeometry y="88" width="410" height="26" as="geometry" />
        </mxCell>
        <mxCell id="Ss0ZoV3JKDON7PeTJ0M3-23" value="- verificar_token(token:String): String" style="text;strokeColor=none;fillColor=none;align=left;verticalAlign=top;spacingLeft=4;spacingRight=4;overflow=hidden;rotatable=0;points=[[0,0.5],[1,0.5]];portConstraint=eastwest;whiteSpace=wrap;html=1;" vertex="1" parent="Ss0ZoV3JKDON7PeTJ0M3-19">
          <mxGeometry y="114" width="410" height="26" as="geometry" />
        </mxCell>
        <mxCell id="Ss0ZoV3JKDON7PeTJ0M3-24" value="- retornar_token_admin(token:String): String" style="text;strokeColor=none;fillColor=none;align=left;verticalAlign=top;spacingLeft=4;spacingRight=4;overflow=hidden;rotatable=0;points=[[0,0.5],[1,0.5]];portConstraint=eastwest;whiteSpace=wrap;html=1;" vertex="1" parent="Ss0ZoV3JKDON7PeTJ0M3-19">
          <mxGeometry y="140" width="410" height="26" as="geometry" />
        </mxCell>
      </root>
    </mxGraphModel>
  </diagram>
</mxfile>
